<?xml version="1.0" encoding="UTF-8"?> <!-- Creator: CorelDRAW --> <svg xmlns="http://www.w3.org/2000/svg" xmlns:xlink="http://www.w3.org/1999/xlink" xmlns:xodm="http://www.corel.com/coreldraw/odm/2003" xml:space="preserve" width="25.5245mm" height="8.5837mm" style="shape-rendering:geometricPrecision; text-rendering:geometricPrecision; image-rendering:optimizeQuality; fill-rule:evenodd; clip-rule:evenodd" viewBox="0 0 3089.08 1038.84"> <defs> <style type="text/css"> <![CDATA[ .fil0 {fill:none} .fil4 {fill:white} .fil5 {fill:#47413B;fill-rule:nonzero} .fil1 {fill:url(#id0)} .fil2 {fill:url(#id1)} .fil3 {fill:url(#id2)} ]]> </style> <linearGradient id="id0" gradientUnits="userSpaceOnUse" x1="593.47" y1="270.9" x2="211.38" y2="804.44"> <stop offset="0" style="stop-opacity:1; stop-color:#F78A61"></stop> <stop offset="1" style="stop-opacity:1; stop-color:#F06A35"></stop> </linearGradient> <linearGradient id="id1" gradientUnits="userSpaceOnUse" x1="233.62" y1="33.1" x2="167.64" y2="240.47"> <stop offset="0" style="stop-opacity:1; stop-color:#67A150"></stop> <stop offset="1" style="stop-opacity:1; stop-color:#328212"></stop> </linearGradient> <linearGradient id="id2" gradientUnits="userSpaceOnUse" xlink:href="#id1" x1="517.42" y1="12.79" x2="599.6" y2="157.19"> </linearGradient> </defs> <g id="Слой_x0020_1"> <metadata id="CorelCorpID_0Corel-Layer"></metadata> <rect class="fil0" y="-0.02" width="3089.08" height="1038.83"></rect> <g id="_1943297339872"> <path class="fil1" d="M438.97 274.08c-4.26,3.55 -8.76,6.61 -13.87,4.42 -165.4,-70.97 -449.29,63.43 -393.99,296.78 58.07,245.05 320.54,272.1 444.45,258.73 8.5,-0.92 15.21,-1.79 22.91,-5.53 34.75,-16.89 78.35,-39.3 120.82,-68.98 2.8,-1.95 4.07,-5.19 3.38,-8.52 -0.7,-3.33 -3.18,-5.78 -6.52,-6.44 -33.28,-6.58 -68.09,-22.87 -93.54,-53.14 -2.29,-2.72 -2.61,-6.4 -0.85,-9.48 1.78,-3.09 5.12,-4.66 8.62,-4.07 57.75,9.94 123.13,13.59 181.52,-6.31 3.26,-1.11 5.76,-2.92 7.85,-5.66 48.48,-63.56 76.28,-145.96 52.22,-252.76 -40.24,-178.56 -247.18,-210.72 -333,-139.03z"></path> <path class="fil2" d="M340.72 184.86c-38.78,27.81 -67.23,44.15 -130.46,46.01 -60.37,1.77 -142.84,-24.51 -193.31,-69.43 -3.15,-2.8 -4.83,-6.34 -5.03,-10.55 -0.19,-4.21 1.15,-7.9 4.02,-10.99 46.34,-49.91 117.74,-95.52 188.8,-97.61 131.81,-3.86 181.06,93.44 187.44,176.79 0.15,1.91 -0.86,3.63 -2.6,4.44 -1.74,0.81 -3.72,0.47 -5.08,-0.87l-37.95 -37.34c-1.59,-1.56 -4.01,-1.75 -5.81,-0.46z"></path> <path class="fil3" d="M461.51 143.12c33.37,14.62 57.21,22.32 104.73,13.66 45.36,-8.25 102.8,-40.97 133.36,-82.53 1.9,-2.59 2.6,-5.51 2.08,-8.68 -0.51,-3.18 -2.11,-5.72 -4.73,-7.58 -42.54,-29.92 -103.11,-52.66 -156.51,-42.94 -99.05,18.03 -120.39,98.53 -111.94,161.79 0.19,1.45 1.22,2.58 2.65,2.9 1.43,0.33 2.84,-0.23 3.65,-1.46l22.43 -33.9c0.93,-1.42 2.71,-1.95 4.27,-1.27z"></path> <path class="fil4" d="M359.66 393.33c29.49,-4.55 58.43,6.34 81.12,27.51 1.49,1.39 2.05,3.34 1.51,5.3 -0.53,1.96 -2,3.38 -3.97,3.82l-40.46 9.27c-1.67,0.39 -2.81,1.86 -2.76,3.58 0.05,1.72 1.26,3.12 2.95,3.41l66.18 11.34c2.97,0.51 5.29,2.28 6.57,5 6.09,12.95 10.53,27.24 12.88,42.49 10.87,70.59 -27.02,135.01 -84.64,143.89 -57.62,8.88 -113.15,-41.15 -124.01,-111.74 -10.88,-70.58 27.01,-135 84.63,-143.87z"></path> <path class="fil4" d="M595.94 363.61c29.49,-4.55 58.43,6.34 81.12,27.51 1.49,1.39 2.05,3.34 1.51,5.3 -0.52,1.97 -1.98,3.38 -3.97,3.82l-40.45 9.28c-1.68,0.38 -2.82,1.85 -2.77,3.57 0.05,1.72 1.27,3.12 2.97,3.41l66.18 11.35c2.95,0.51 5.28,2.26 6.56,4.99 6.09,12.95 10.53,27.24 12.88,42.49 10.87,70.59 -27.02,135.01 -84.64,143.89 -57.62,8.88 -113.15,-41.15 -124.01,-111.73 -10.88,-70.59 27.01,-135.01 84.63,-143.89z"></path> </g> <path class="fil5" d="M1177.84 702.46c-9.62,8.75 -23.38,16.29 -40.54,22.33 -17.37,6.11 -39.68,9.46 -67.14,9.96 -27.45,0.51 -53.43,-1.86 -78.07,-7.25 -24.69,-5.41 -42.27,-11.58 -52.98,-18.35 -10.73,-6.79 -15.87,-13.51 -15.87,-19.92 0,-22.51 2.58,-45.81 7.72,-70.06 5.14,-24.3 11.36,-36.39 18.44,-36.34 1.28,0 14.79,5.42 40.33,16.21 25.51,10.77 44.83,16.06 57.91,16.04 12.86,-0.02 21.16,-1.79 25.1,-5.18 3.99,-3.41 6,-8.22 6,-14.57 0,-6.31 -3.64,-11.93 -10.72,-16.94 -7.08,-5 -16.08,-9.34 -26.82,-13.17 -10.71,-3.82 -22.3,-9.39 -34.75,-16.59 -12.44,-7.2 -24.02,-15.31 -34.75,-24.14 -10.72,-8.83 -19.62,-21.29 -26.81,-37.59 -7.18,-16.27 -10.52,-34.88 -10.52,-55.71 0,-89.01 42.92,-133.57 128.7,-131 32.19,0.97 59.85,4.97 83.23,11.15 23.15,6.1 39.73,12.31 49.33,18.9 9.49,6.51 14.16,12.78 14.16,18.63 0,20.09 -3.87,41.64 -11.8,64.6 -7.94,23.01 -15.66,34.52 -23.16,34.32 -1.28,-0.02 -5.49,-1.67 -12.65,-5.63 -21.37,-11.8 -39.04,-18.24 -53.2,-18.57 -13.94,-0.34 -23.55,1.03 -28.53,4.04 -5.11,3.11 -7.72,7.83 -7.72,14.35 0,6.58 3.61,12.05 10.72,16.31 7.25,4.34 16.1,8.25 26.6,11.76 10.52,3.52 22.1,8.94 34.53,16.04 12.44,7.09 23.99,15.36 34.75,24.7 10.69,9.28 19.41,22.34 26.6,39.12 7.18,16.75 10.73,36.07 10.73,58.18 0,23.19 -4.93,44.29 -15.02,63.48 -6.2,11.76 -14.14,22.09 -23.81,30.9zm67.99 92.33c0,-61.11 0,-122.22 0,-183.33 0,-61.04 0,-122.27 0,-183.38 0,-8.11 9,-16.01 27.24,-23.59 18.21,-7.56 37.75,-10.67 58.77,-9.56 9.86,0.52 17.42,2.13 22.96,5.06 5.39,2.86 8.8,5.74 10.07,8.39 1.29,2.7 3.86,14.01 7.3,33.87 1.28,0.06 2.58,0.12 3.86,0.17 0.64,-3.32 3.62,-8.4 8.8,-15.25 5.12,-6.77 10.52,-12.25 15.87,-16.37 5.37,-4.14 13.07,-7.71 22.96,-10.64 10.06,-2.98 21.88,-3.96 35.39,-3.2 13.3,0.75 25.73,4.85 36.68,12.09 10.93,7.23 19.09,15.31 24.45,24.31 5.36,9 9.56,20.22 12.66,33.58 3.12,13.47 4.94,24.1 5.36,32.08 0.42,7.99 0.86,19.52 0.86,34.54 0,15.08 -0.54,29.95 -1.5,44.57 -0.97,14.74 -2.81,29.76 -5.36,44.96 -2.59,15.3 -6.35,28.57 -11.16,39.67 -4.84,11.17 -11.06,21.35 -18.44,30.5 -14.92,18.47 -36.89,28.26 -65.63,29.37 -10.52,0.4 -19.55,-0.97 -27.46,-4.16 -7.95,-3.22 -13.91,-7.19 -17.8,-11.88 -8.11,-9.75 -12.94,-18.5 -14.16,-26.27 -0.28,-1.78 -0.42,-3.65 -0.42,-5.51 -1.29,0 -2.58,0.05 -3.86,0.05 2.14,16.71 4.5,33.32 6.86,49.91 0,21 0,41.98 0,62.97 0,4.05 -9.45,7.83 -28.1,11.32 -18.67,3.49 -37.76,5.82 -57.27,6.92 -19.74,1.09 -32.63,0.81 -39.26,-1.02 -6.45,-1.78 -9.65,-5.18 -9.65,-10.19zm161.3 -237.29c0,-31.28 -1.29,-53.17 -4.28,-65.83 -3,-12.67 -7.3,-19.06 -13.09,-19.25 -5.78,-0.19 -10.08,3.38 -12.65,10.75 0,24.31 0,48.63 0,72.99 0,24.31 0,48.62 0,72.98 0,9.62 4.3,14.44 13.08,14.29 11.36,-0.18 16.94,-28.86 16.94,-85.93zm288.72 36.8c0,22 10.08,32.93 30.24,32.75 11.58,-0.1 26.81,-4.33 45.69,-12.6 18.88,-8.28 28.74,-12.33 29.6,-12.33 6.22,0 14.46,9.36 24.45,28.09 9.96,18.67 15.02,32.41 15.02,41.29 0,12.83 -13.12,22.63 -39.03,29.82 -25.78,7.15 -51.28,11.27 -75.94,11.99 -24.88,0.73 -45.47,-0.62 -62.21,-4.22 -16.73,-3.59 -30.28,-8.31 -40.97,-14.46 -10.54,-6.06 -19.76,-13.71 -27.67,-22.9 -7.96,-9.26 -13.65,-18.21 -17.6,-26.67 -3.98,-8.53 -6.96,-18.03 -9.21,-28.53 -3.33,-15.49 -4.94,-31.47 -4.94,-47.95 0,-32.01 3.84,-58.93 11.36,-80.75 7.48,-21.66 19.36,-38.13 34.75,-49.57 15.29,-11.35 32.18,-19.1 51.05,-23.01 18.87,-3.91 40.97,-5.08 66.72,-4.05 81.93,3.24 122.9,33.26 122.9,90.99 0,61.34 -46.12,91.95 -138.14,92.06 -5.36,0 -10.72,0.05 -16.08,0.05zm-0.86 -74.27c0,11.26 0,22.39 0,33.6 9.44,0.05 17.17,-3.76 23.16,-11.42 6.01,-7.7 9.02,-17.05 9.02,-28.14 0,-20.15 -5.16,-30.38 -15.24,-30.67 -11.36,-0.33 -16.94,11.93 -16.94,36.63zm312.1 74.05c0,21.03 10.08,31.61 30.03,31.67 11.8,0.05 27.01,-3.98 45.69,-11.87 18.87,-7.96 28.76,-11.87 29.6,-11.87 6.22,-0.05 14.39,9.28 24.46,28.02 10.08,18.8 15.01,32.59 15.01,41.48 0,12.83 -12.85,22.34 -38.82,28.54 -25.94,6.18 -51.27,9.08 -76.15,8.99 -24.66,-0.07 -45.46,-2.17 -62.19,-5.95 -16.71,-3.8 -30.24,-8.68 -40.76,-14.63 -10.5,-5.97 -19.75,-13.22 -27.67,-21.95 -7.95,-8.76 -13.94,-17.11 -17.8,-25.09 -3.85,-7.94 -7.06,-16.83 -9.22,-26.61 -3.2,-14.41 -4.94,-29.26 -4.94,-44.63 0,-29.76 3.85,-54.87 11.36,-75.29 7.49,-20.31 19.39,-35.96 34.76,-47.04 15.3,-11.03 32.39,-19.04 51.05,-23.45 18.87,-4.48 40.97,-6.69 66.71,-7.04 81.93,-1.11 122.91,26.56 122.91,84.46 0,61.57 -45.92,92.4 -137.93,92.34 -5.36,0 -10.72,0 -16.08,-0.05zm-1.08 -70.97c0,10.7 0,21.38 0,32.08 9.44,0 17.19,-3.75 23.16,-11.19 6.04,-7.53 9.02,-16.6 9.02,-27.3 0,-19.52 -5.16,-29.23 -15.02,-29.2 -11.36,0.04 -17.16,11.93 -17.16,35.62zm246.89 176.19c-7.73,-3.85 -16.05,-9.62 -24.88,-17.1 -8.96,-7.6 -16.35,-16.24 -22.1,-26.29 -13.76,-24.05 -20.59,-55.2 -20.59,-93.52 0,-23.81 3.97,-45.03 11.38,-63.86 7.39,-18.87 16.47,-33.69 27.02,-44.29 10.67,-10.72 23.22,-19.52 37.11,-26.78 22.37,-11.69 44.62,-18.19 66.93,-19.29 37.75,-1.88 63.9,-0.11 78.51,5.4 14.76,5.57 22.09,15.87 22.09,31.01 0,15.14 -2.44,31.26 -7.5,48.51 -5.02,17.08 -11.58,25.78 -19.52,25.94 -2.78,0.06 -10.48,-2.84 -23.6,-8.39 -13.26,-5.59 -24.46,-8.22 -34.1,-7.99 -9.65,0.23 -16.97,4.43 -21.88,12.49 -4.95,8.14 -7.5,23.7 -7.5,46.65 0,23.01 2.24,38.66 6.86,47.04 4.6,8.33 11.59,12.57 21.02,12.66 9.66,0.08 21.48,-3.15 35.82,-10.02 14.18,-6.79 22.09,-10.29 23.81,-10.29 6,0 11.92,7.85 17.58,23.68 5.7,15.9 8.59,29.93 8.59,42.26 0,18.96 -9.02,31.95 -27.24,38.89 -18.02,6.85 -42.69,9.59 -73.57,8.6 -30.89,-0.98 -55.79,-6.11 -74.22,-15.31zm362.72 7.77c0,-25.78 0,-51.65 0,-77.43 0,-25.83 0,-51.65 0,-77.48 0,-27.91 -1.08,-48.12 -3.01,-60.67 -1.92,-12.54 -6.64,-18.75 -13.93,-18.5 -6.66,0.21 -9.88,5.35 -9.88,15.25 0,36.36 0,72.76 0,109.04 0,36.31 0,72.59 0,108.89 0,4.11 -9.44,6.97 -28.1,8.67 -18.87,1.73 -38.18,2.25 -57.91,1.52 -19.74,-0.73 -32.17,-2.35 -37.32,-4.45 -5.34,-2.17 -7.93,-5.45 -7.93,-10.07 0,-61.44 0,-122.89 0,-184.28 0,-61.44 0,-122.89 0,-184.39 0,-7.37 9.45,-15.6 28.31,-24.76 18.67,-9.06 38.61,-14.73 59.21,-16.54 21.66,-1.9 35.56,1.56 41.39,10.24 1.88,2.8 2.8,5.8 2.8,9.17 0,27.12 0,54.19 0,81.32 -1.72,12.77 -3.44,25.6 -5.16,38.43 1.08,-0.11 2.15,-0.11 3.22,-0.17 4.72,-7.99 11.82,-15.16 21.45,-21.55 18.26,-12.11 37.98,-18.87 59.42,-20.02 30.67,-1.66 51.62,8.82 62.42,31.5 10.84,22.79 16.29,60.44 16.29,112.71 0,29.6 0,59.19 0,88.86 0,29.59 0,59.19 0,88.78 0,4.28 -9.65,7.36 -28.53,9.23 -18.87,1.89 -38.18,2.47 -57.91,1.8 -19.52,-0.68 -31.97,-2.23 -37.11,-4.44 -5.16,-2.23 -7.72,-5.81 -7.72,-10.64zm329.04 -16.1c0,-11.76 0,-23.47 0,-35.28 -1.28,0 -2.58,0 -3.86,-0.06 -1.72,1.97 -4.09,4.6 -7.3,7.71 -3.23,3.13 -10.9,7.27 -22.95,12.33 -11.98,5.01 -25.32,7.33 -40.12,7.14 -14.58,-0.19 -27.64,-3.32 -38.82,-9.17 -11.12,-5.83 -19.86,-13.57 -26.37,-23.19 -6.57,-9.68 -11.5,-22.41 -15.24,-38.36 -5.91,-25.23 -9.22,-60.84 -9.22,-106.92 0,-26.72 0,-53.5 0,-80.24 0,-8.1 9.66,-16.58 28.74,-25.26 19.1,-8.7 39.25,-13.63 60.27,-14.31 28.1,-0.9 42.26,7.66 42.26,25.55 0,24.99 0,49.92 0,74.9 0,79.34 5.14,119.02 15.66,119.02 6,0 9.22,-5.35 9.22,-16.05 0,-28.02 0,-56.09 0,-84.11 0,-28.03 0,-56.17 0,-84.24 0,-8.39 10.07,-16.83 30.45,-25.32 20.59,-8.57 42.48,-13 65.64,-13.17 23.37,-0.17 35.18,7.6 35.18,23.24 0,47.44 0,94.87 0,142.31 0,47.43 0,94.87 0,142.3 0,89.47 -49.14,134.31 -146.94,131.84 -51.48,-1.29 -86.46,-9.15 -104.89,-22.05 -8.16,-5.72 -12.22,-11.55 -12.22,-17.39 0,-9.34 3.13,-24.96 9.65,-46.76 6.56,-21.92 12.66,-32.79 18.02,-32.69 1.29,0.01 5.86,1.14 13.72,3.82 23.89,8.17 43.98,12.72 60.06,13 15.87,0.28 26.43,-1.69 31.53,-6.03 4.99,-4.22 7.52,-11.87 7.52,-22.56z"></path> </g> </svg> 